<svg xmlns="http://www.w3.org/2000/svg" viewBox="0 0 8 8" preserveAspectRatio="xMinYMin slice" width="8" height="8"><path fill="#ffffff" d="M2.905 2.054H5.61V4.41H2.906z"/><path fill="#ffffff" d="M4.935 3.216h2.627v1.228H4.935z"/><path fill="#ffffff" d="M4.697.86h1.75v2.72h-1.75z"/><path fill="#ffffff" d="M1.87 4.112h2.827v1.394H1.87z"/><path fill="#ffffff" d="M1.672.627h2.03v1.96h-2.03z"/><path fill="#ffffff" d="M3.7 4.012h2.35v1.46H3.7z"/><path fill="#ffffff" d="M6.925-.07h.597v.397h-.597z"/><path fill="#ffffff" d="M7.642 1.357h.318v.365h-.318z"/><path fill="#ffffff" d="M1.353 2.983h.318v.2h-.317z"/><path fill="#ffffff" d="M.796 4.577h.597v.498H.796z"/><path fill="#ffffff" d="M7.363 5.274H8v.564h-.637z"/><path fill="#ffffff" d="M.796-.004h.12v.232h-.12z"/><path fill="#ffffff" d="M4.18 5.838h1.59V7H4.18z"/><path fill="#ffffff" d="M3.86-1H4.5V.13H3.86z"/><path fill="#ffffff" d="M0-.436h1.353v.763H0z"/></svg>
