<svg xmlns="http://www.w3.org/2000/svg" width="20" height="26" viewBox="0 0 0 0" preserveAspectRatio="xMinYMin slice"><g><g fill="#fff" stroke="#fff"><path d="M2.05 1050.37h.988v1.355h-.99zm14.63-2.873h1.27v1.516h-1.27zm-2.616 2.952h.848v.717h-.848zm-13.287-3.99H1.2v.4H.778zm-.707-3.03h.707v1.355H.07zm8.693 7.098h1.272v1.755H8.763zm-1.413-2.95h4.806v2.233H7.35zm-.212-1.197h.918v4.388h-.918zm.636-16.43H9.47v1.834H7.774zm-2.333-3.51h1.556v1.436H5.44zm13.5 12.682h.99v1.037h-.99zm-3.392-2.153h.99v3.27h-.99zm-2.615-3.272h1.202v1.277h-1.202zM.21 1034.735h1.344v1.596H.21zm6.22 1.436h5.09v7.898H6.43zm-4.734 2.633h8.27v3.91h-8.27zm10.954 4.627h3.04v2.392h-3.04zm-8.127-3.91h8.55v9.413h-8.55zm2.22 3.392h.64v.723h-.64z"/></g></g></svg>
